# xmcd
#
# Track frame offsets:
#	150
#	15057
#	30447
#	42400
#	58517
#	74850
#	92532
#	112242
#	123155
#	141005
#	155502
#	168630
#	184725
#	203752
#	216905
#	231950
#
# Disc length: 3285
#
# Revision: 4
# Processed by: cddbd v1.5.1PL0 Copyright (c) Steve Scherf et al.
# Submitted via: EasyCDDAExtractor 5.0.2.1
# Normalized: r3:DSETVAR1
#
DISCID=df0cd310
DTITLE=Various Artist - Number 1 Country Hit Mix
DYEAR=1993
DGENRE=Country
TTITLE0=Alabama - Take A Little Trip
TTITLE1=Billy Ray Cyrus - Achy Breaky Heart
TTITLE2=Tanya Tucker - It's A Little Too Late
TTITLE3=Travis Tritt - Can I Trust You With My Heart
TTITLE4=Tracy Lawrence - Sticks And Stones
TTITLE5=Doug Stone - Too Busy Being In Love
TTITLE6=Brooks and Dunn - Neon Moon
TTITLE7=Alan Jackson - She's Got The Rhythm (And I Got The Blues)
TTITLE8=Wynonna Judd - No One Else On Earth
TTITLE9=Collin Raye - In This Life
TTITLE10=Sammy Kershaw - She Don't Know She's Beautiful
TTITLE11=Clint Black - When My Ship Comes In
TTITLE12=Mark Chesnutt - I'll Think Of Something
TTITLE13=John Anderson - Straight Tequila Night
TTITLE14=Billy Dean - If There Hadn't Been You
TTITLE15=Sawyer Brown - Some Girls Do
EXTD=ID3G:   2
EXTT0=
EXTT1=
EXTT2=
EXTT3=
EXTT4=
EXTT5=
EXTT6=
EXTT7=
EXTT8=
EXTT9=
EXTT10=
EXTT11=
EXTT12=
EXTT13=
EXTT14=
EXTT15=
PLAYORDER=
